<svg width="425" height="480" viewBox="0 0 425 480" fill="none" xmlns="http://www.w3.org/2000/svg">
<path d="M223.918 101.148C219.598 103.098 217.148 101.668 213.308 99.8676C213.153 99.7958 212.981 99.7699 212.812 99.793C212.644 99.8161 212.486 99.8871 212.358 99.9976L208.658 103.108C208.499 103.243 208.401 103.436 208.384 103.644C208.367 103.852 208.433 104.058 208.568 104.218L213.198 109.718C213.337 109.885 213.514 110.017 213.716 110.104C213.917 110.191 214.137 110.23 214.358 110.218C217.388 110.048 220.898 109.998 223.518 111.678C223.805 111.867 224.028 112.139 224.158 112.458C224.665 113.698 224.548 114.914 223.808 116.108C223.589 116.461 223.247 116.721 222.848 116.838C220.335 117.558 218.211 117.458 216.478 116.538C214.218 115.331 213.001 114.718 212.828 114.698C212.421 114.652 212.005 114.71 211.618 114.868C209.338 115.781 206.878 117.021 204.238 118.588C193.418 124.978 192.548 139.428 206.238 143.118C213.005 144.938 218.621 143.318 223.088 138.258C224.028 137.198 224.561 135.798 224.688 134.058C224.928 130.898 222.038 128.338 219.288 127.318C219.216 127.291 219.14 127.282 219.064 127.29C218.988 127.298 218.915 127.323 218.85 127.363C218.785 127.404 218.731 127.459 218.69 127.523C218.65 127.588 218.625 127.662 218.618 127.738C218.145 133.131 215.515 135.761 210.728 135.628C205.498 135.478 203.308 129.638 206.578 125.808C211.338 120.218 219.908 122.338 224.788 126.568C231.508 132.388 227.458 140.998 220.898 144.818C212.978 149.428 201.018 147.888 195.448 140.258C192.635 136.411 191.758 132.374 192.818 128.148C194.918 119.758 201.518 115.068 209.148 111.958C209.278 111.905 209.393 111.82 209.483 111.712C209.572 111.604 209.634 111.476 209.662 111.338C209.689 111.2 209.682 111.058 209.642 110.923C209.601 110.789 209.528 110.667 209.428 110.568L205.728 106.858C205.474 106.607 205.157 106.429 204.81 106.342C204.464 106.256 204.1 106.265 203.758 106.368C195.408 108.908 196.218 99.6776 202.028 101.048C203.508 101.394 204.398 101.531 204.698 101.458C205.165 101.339 205.599 101.117 205.968 100.808L209.178 98.1276C209.272 98.0494 209.349 97.9523 209.404 97.8427C209.458 97.733 209.49 97.6132 209.495 97.4908C209.501 97.3685 209.481 97.2463 209.437 97.132C209.392 97.0178 209.325 96.9141 209.238 96.8276L206.908 94.4976C206.786 94.375 206.635 94.2858 206.468 94.2385C206.302 94.1913 206.126 94.1875 205.958 94.2276C203.428 94.8476 202.168 95.4476 199.968 94.1976C198.861 93.5642 198.291 92.8076 198.258 91.9276C198.148 88.7376 200.248 87.7776 203.068 88.5376C204.335 88.8842 205.578 89.2376 206.798 89.5976C207.119 89.6899 207.461 89.674 207.772 89.5523C208.083 89.4305 208.345 89.2098 208.518 88.9242C208.691 88.6385 208.765 88.3039 208.729 87.9719C208.693 87.64 208.548 87.3292 208.318 87.0876C207.291 86.0476 205.588 85.6342 203.208 85.8476C202.646 85.899 202.088 85.7709 201.629 85.4848C201.17 85.1987 200.837 84.7722 200.688 84.2776C200.135 82.4509 200.618 81.1042 202.138 80.2376C202.382 80.0964 202.675 80.0536 202.958 80.1176L206.018 80.8076C206.375 80.8867 206.745 80.8929 207.106 80.8259C207.467 80.7589 207.811 80.6201 208.118 80.4176L209.598 79.4176C209.713 79.3423 209.805 79.2381 209.867 79.1155C209.928 78.993 209.957 78.8563 209.948 78.7194C209.94 78.5825 209.896 78.4502 209.821 78.3357C209.745 78.2213 209.641 78.1288 209.518 78.0676L205.078 75.8476C204.847 75.7335 204.649 75.5621 204.503 75.3497C204.356 75.1374 204.267 74.8912 204.243 74.6346C204.219 74.378 204.261 74.1195 204.365 73.8837C204.469 73.6479 204.632 73.4427 204.838 73.2876C206.251 72.2209 207.311 70.8142 208.018 69.0676L208.998 0.487569C209 0.406528 209.022 0.3272 209.061 0.256406C209.101 0.185612 209.157 0.12548 209.225 0.0811967C209.293 0.0369133 209.37 0.00980168 209.451 0.00220197C209.532 -0.00539774 209.613 0.00674194 209.688 0.0375718L209.988 0.157575C210.24 0.262171 210.457 0.437892 210.612 0.663365C210.766 0.888838 210.852 1.15434 210.858 1.42757C211.458 40.0209 211.795 62.7176 211.868 69.5176C211.888 71.1176 211.658 72.2776 210.478 73.4376C210.386 73.5276 210.32 73.6408 210.287 73.7653C210.254 73.8899 210.256 74.0213 210.292 74.1459C210.327 74.2704 210.396 74.3836 210.49 74.4736C210.585 74.5636 210.701 74.6271 210.828 74.6576C212.648 75.0842 214.275 75.7609 215.708 76.6876C215.906 76.8171 216.075 76.9869 216.203 77.1856C216.331 77.3843 216.416 77.6076 216.451 77.8408C216.487 78.074 216.473 78.3118 216.411 78.5388C216.348 78.7657 216.238 78.9766 216.088 79.1576C214.841 80.6576 213.218 81.8176 211.218 82.6376C211.042 82.7113 210.888 82.8283 210.769 82.9777C210.651 83.127 210.573 83.3037 210.542 83.491C210.511 83.6782 210.528 83.8699 210.592 84.0478C210.656 84.2257 210.765 84.384 210.908 84.5076L211.308 84.8676C211.68 85.1944 212.131 85.4195 212.618 85.5211C213.105 85.6227 213.611 85.5973 214.088 85.4476C216.748 84.6176 218.428 84.0276 220.678 84.6976C223.348 85.4876 223.128 89.6176 220.638 90.4976C218.838 91.1309 216.678 91.1376 214.158 90.5176C212.991 90.2309 211.801 90.6776 210.588 91.8576C210.435 92.0053 210.342 92.2047 210.327 92.4172C210.312 92.6296 210.377 92.84 210.508 93.0076C211.701 94.5142 213.148 95.1442 214.848 94.8976C217.221 94.5576 219.348 94.5342 221.228 94.8276C224.368 95.3276 226.078 98.3876 223.918 101.148ZM212.758 126.068L208.778 128.288C208.643 128.362 208.525 128.462 208.429 128.582C208.333 128.702 208.261 128.84 208.218 128.987C208.176 129.135 208.163 129.29 208.18 129.442C208.197 129.595 208.244 129.743 208.318 129.878L208.528 130.248C208.756 130.659 209.057 131.025 209.412 131.325C209.766 131.625 210.169 131.853 210.596 131.996C211.023 132.139 211.467 132.194 211.901 132.158C212.336 132.123 212.753 131.997 213.128 131.788L213.448 131.618C214.205 131.195 214.747 130.46 214.955 129.575C215.164 128.69 215.021 127.727 214.558 126.898L214.348 126.518C214.196 126.247 213.944 126.048 213.646 125.964C213.348 125.88 213.029 125.917 212.758 126.068Z" fill="#8D201E"/>
<path d="M261.308 184.947L268.138 179.557C268.169 179.534 268.204 179.516 268.242 179.507C268.28 179.497 268.32 179.496 268.359 179.502C268.399 179.509 268.437 179.523 268.471 179.545C268.505 179.566 268.534 179.594 268.558 179.627C268.738 179.894 268.701 180.204 268.448 180.557C256.548 197.087 258.098 215.797 270.948 231.757C270.994 231.819 271.019 231.894 271.018 231.972C271.017 232.049 270.991 232.124 270.943 232.184C270.895 232.243 270.829 232.284 270.755 232.299C270.681 232.314 270.605 232.303 270.538 232.267C264.608 229.147 260.708 224.497 257.408 218.737C257.363 218.659 257.295 218.597 257.212 218.559C257.13 218.522 257.038 218.511 256.95 218.529C256.861 218.547 256.781 218.592 256.719 218.658C256.658 218.724 256.619 218.808 256.608 218.897C255.908 223.724 254.351 228.637 251.938 233.637C251.886 233.746 251.864 233.865 251.871 233.984C251.879 234.104 251.918 234.219 251.983 234.319C252.048 234.419 252.138 234.501 252.244 234.557C252.35 234.613 252.468 234.64 252.588 234.637C263.418 234.377 276.008 240.687 283.998 247.627C299.218 261.617 307.778 282.727 304.118 303.657C301.631 317.817 295.341 330.037 285.248 340.317C285.186 340.382 285.149 340.466 285.141 340.555C285.134 340.644 285.158 340.733 285.208 340.806C285.258 340.88 285.332 340.934 285.418 340.96C285.503 340.986 285.595 340.981 285.678 340.947C295.828 336.827 306.078 336.717 316.678 338.977C331.338 341.817 343.778 347.297 354.678 357.637C365.324 367.744 370.294 380.127 369.588 394.787C368.788 411.321 362.478 425.474 350.658 437.247C347.751 440.141 345.364 442.271 343.498 443.638C331.824 452.178 319.121 458.964 305.388 463.997C261.678 480.437 214.468 483.297 168.578 475.457C146.511 471.691 126.118 466.157 107.398 458.857C88.6376 450.967 72.3976 439.297 62.6876 422.207C55.3476 409.297 52.8576 393.707 57.5776 379.707C63.8476 361.117 79.9076 347.347 98.4376 341.637C111.531 337.597 125.044 336.997 138.978 339.837C139.077 339.856 139.18 339.843 139.272 339.8C139.364 339.757 139.439 339.686 139.488 339.597C139.537 339.508 139.557 339.406 139.544 339.306C139.531 339.205 139.487 339.111 139.418 339.037C125.518 324.217 118.578 303.947 121.968 283.657C126.278 260.087 142.418 241.047 166.098 235.467C168.904 234.807 171.484 234.461 173.838 234.427C173.924 234.426 174.009 234.403 174.084 234.36C174.159 234.317 174.223 234.256 174.268 234.181C174.314 234.107 174.341 234.021 174.346 233.934C174.351 233.846 174.334 233.758 174.298 233.677C172.151 229.237 170.604 224.881 169.658 220.607C169.629 220.481 169.563 220.367 169.468 220.278C169.373 220.19 169.254 220.132 169.127 220.111C168.999 220.091 168.868 220.109 168.75 220.164C168.633 220.218 168.534 220.307 168.468 220.417C164.878 226.357 158.408 231.697 151.428 232.297C151.348 232.307 151.268 232.288 151.202 232.245C151.135 232.201 151.085 232.136 151.061 232.059C151.037 231.982 151.039 231.899 151.067 231.822C151.096 231.745 151.149 231.68 151.218 231.637C157.004 228.104 161.268 223.177 164.008 216.857C164.901 214.897 165.544 212.854 165.938 210.727C167.978 199.681 165.058 190.451 157.178 183.037C156.058 181.987 154.288 180.987 153.068 179.797C153.017 179.748 152.984 179.684 152.974 179.615C152.964 179.545 152.977 179.474 153.011 179.413C153.045 179.351 153.099 179.303 153.163 179.275C153.227 179.247 153.299 179.241 153.368 179.257C161.621 181.104 167.341 185.921 170.528 193.707C170.575 193.822 170.655 193.92 170.757 193.989C170.86 194.058 170.981 194.095 171.104 194.097C171.228 194.098 171.349 194.062 171.453 193.995C171.557 193.927 171.638 193.831 171.688 193.717C176.128 183.387 182.708 174.657 192.468 169.317C217.098 155.837 245.808 168.977 254.728 194.687C254.763 194.784 254.827 194.867 254.911 194.926C254.995 194.985 255.095 195.017 255.198 195.017C255.3 195.017 255.4 194.985 255.485 194.926C255.569 194.867 255.633 194.784 255.668 194.687C256.901 191.174 258.781 187.927 261.308 184.947ZM213.078 250.547C213.404 250.554 213.634 250.484 213.768 250.337C221.321 241.964 230.728 236.917 241.988 235.197C244.368 234.827 244.888 234.137 246.148 232.287C251.628 224.287 254.104 215.727 253.578 206.607C252.358 185.357 235.198 168.517 213.418 168.427C191.628 168.337 174.338 185.037 172.938 206.277C172.338 215.391 174.744 223.971 180.158 232.017C181.398 233.877 181.918 234.567 184.298 234.957C195.538 236.771 204.901 241.894 212.388 250.327C212.521 250.474 212.751 250.547 213.078 250.547ZM202.918 362.147C204.871 363.394 207.851 365.111 211.858 367.297C227.078 375.597 253.478 363.657 266.018 353.827C271.378 349.634 276.128 346.101 280.268 343.227C280.631 342.97 280.943 342.644 281.188 342.267C285.774 335.094 289.408 327.667 292.088 319.987C298.828 300.707 298.568 276.727 286.748 259.907C275.828 244.367 257.588 235.397 238.308 238.687C228.828 240.307 220.664 244.687 213.818 251.827C213.619 252.033 213.348 252.153 213.063 252.162C212.777 252.172 212.499 252.069 212.288 251.877C210.968 250.651 209.188 249.101 206.948 247.227C202.441 243.461 197.074 240.864 190.848 239.437C176.374 236.124 163.294 238.764 151.608 247.357C141.908 254.497 135.444 263.544 132.218 274.497C125.708 296.617 130.928 320.267 143.348 339.777C143.602 340.179 143.94 340.521 144.339 340.78C144.737 341.039 145.187 341.209 145.658 341.277C160.084 343.457 173.928 347.751 187.188 354.157C191.258 356.127 193.938 356.677 198.258 356.807C208.468 357.117 218.448 356.437 227.368 353.037C236.138 349.687 243.328 343.337 246.078 334.497C246.124 334.346 246.137 334.187 246.114 334.03C246.091 333.873 246.033 333.724 245.945 333.592C245.857 333.461 245.74 333.351 245.604 333.271C245.468 333.19 245.315 333.141 245.158 333.127C239.028 332.597 232.318 329.087 232.778 321.857C233.388 312.317 243.908 313.707 248.008 319.617C249.614 321.931 250.501 324.571 250.668 327.537C250.674 327.644 250.704 327.748 250.756 327.842C250.808 327.935 250.88 328.016 250.968 328.077C251.055 328.139 251.156 328.18 251.261 328.197C251.367 328.215 251.475 328.208 251.578 328.177C260.398 325.597 265.498 319.177 267.528 310.067C270.588 296.237 262.898 279.827 250.418 273.117C238.148 266.507 224.208 268.697 214.848 279.077C214.75 279.184 214.681 279.314 214.648 279.454C214.614 279.595 214.617 279.742 214.656 279.881C214.695 280.02 214.769 280.147 214.871 280.25C214.973 280.352 215.099 280.427 215.238 280.467C227.628 284.237 236.708 294.737 234.658 308.417C233.324 317.284 228.618 323.694 220.538 327.647C214.344 330.687 207.328 330.894 199.488 328.267C199.123 328.144 198.728 328.137 198.358 328.247C197.304 328.561 196.188 329.004 195.008 329.577C189.278 332.357 181.928 332.077 175.938 330.417C150.518 323.347 145.268 289.697 164.068 272.777C172.058 265.587 183.058 262.297 193.688 264.927C200.078 266.507 205.928 270.857 210.928 275.507C211.012 275.588 211.112 275.65 211.222 275.691C211.331 275.732 211.448 275.751 211.565 275.746C211.682 275.742 211.798 275.714 211.905 275.664C212.012 275.615 212.108 275.544 212.188 275.457C218.468 268.577 226.024 265.031 234.858 264.817C255.868 264.307 270.838 281.477 272.588 301.167C273.898 315.987 266.218 329.247 251.488 332.807C251.29 332.856 251.109 332.956 250.964 333.096C250.818 333.237 250.712 333.413 250.658 333.607C250.484 334.221 250.298 335.027 250.098 336.027C248.838 342.367 243.898 348.247 238.998 351.907C229.438 359.047 215.818 361.277 203.188 361.207C203.078 361.208 202.971 361.245 202.883 361.311C202.796 361.378 202.732 361.471 202.702 361.577C202.671 361.682 202.676 361.795 202.715 361.898C202.754 362.001 202.825 362.088 202.918 362.147ZM193.158 324.637C190.108 321.467 187.758 319.037 186.148 315.477C183.828 310.344 183.328 304.931 184.648 299.237C187.158 288.457 196.388 281.477 207.328 279.937C207.434 279.923 207.534 279.879 207.616 279.812C207.699 279.744 207.762 279.654 207.798 279.553C207.834 279.451 207.842 279.341 207.82 279.234C207.799 279.128 207.75 279.029 207.678 278.947C199.948 270.467 188.428 265.887 177.248 270.177C160.808 276.477 153.028 293.677 159.628 310.017C163.741 320.217 171.401 325.881 182.608 327.007C186.074 327.361 189.514 326.911 192.928 325.657C193.024 325.622 193.111 325.564 193.179 325.486C193.247 325.409 193.294 325.315 193.317 325.214C193.34 325.113 193.337 325.007 193.31 324.906C193.282 324.806 193.229 324.713 193.158 324.637ZM210.448 305.107C210.548 312.001 208.231 318.347 203.498 324.147C203.435 324.224 203.394 324.316 203.378 324.414C203.362 324.511 203.371 324.612 203.405 324.704C203.44 324.797 203.498 324.879 203.573 324.943C203.649 325.007 203.74 325.05 203.838 325.067C214.918 327.101 223.128 323.367 228.468 313.867C229.841 311.421 230.504 308.404 230.458 304.817C230.404 301.224 229.654 298.227 228.208 295.827C222.588 286.487 214.271 282.994 203.258 285.347C203.161 285.368 203.071 285.414 202.998 285.48C202.924 285.546 202.869 285.63 202.838 285.724C202.807 285.818 202.8 285.918 202.82 286.015C202.839 286.112 202.883 286.203 202.948 286.277C207.848 291.937 210.348 298.214 210.448 305.107ZM188.458 305.347C188.538 311.821 191.528 317.381 197.428 322.027C197.623 322.183 197.866 322.266 198.117 322.264C198.368 322.263 198.611 322.176 198.808 322.017C203.478 318.187 206.148 310.647 206.078 305.127C206.008 299.617 203.158 292.137 198.398 288.427C198.198 288.274 197.953 288.192 197.702 288.196C197.451 288.199 197.21 288.288 197.018 288.447C191.231 293.241 188.378 298.874 188.458 305.347ZM246.588 327.867C245.518 324.017 243.538 318.647 238.788 319.627C238.575 319.671 238.375 319.763 238.202 319.897C238.029 320.03 237.887 320.201 237.788 320.397C235.088 325.827 242.158 328.557 246.038 328.577C246.125 328.577 246.212 328.557 246.29 328.518C246.369 328.48 246.437 328.424 246.491 328.355C246.544 328.287 246.58 328.207 246.597 328.122C246.614 328.038 246.611 327.95 246.588 327.867ZM70.7676 371.127C62.6676 382.517 61.0276 397.137 65.7476 410.397C76.5576 440.727 105.958 453.487 135.498 460.617C161.718 466.944 188.051 469.711 214.498 468.917C253.518 467.737 295.098 465.427 328.978 443.827C345.508 433.287 361.148 416.337 362.618 395.767C363.798 379.407 357.661 366.897 344.208 358.237C327.741 347.624 309.848 343.401 290.528 345.567C285.348 346.147 282.738 346.347 278.588 350.007C266.828 360.361 253.451 367.787 238.458 372.287C229.048 375.107 218.708 375.067 209.858 370.287C202.558 366.347 197.821 363.821 195.648 362.707C173.514 351.367 149.631 345.837 123.998 346.117C103.648 346.337 82.6776 354.357 70.7676 371.127Z" fill="#8D201E"/>
<path d="M188.618 230.457C188.592 230.417 188.581 230.369 188.586 230.322C188.591 230.274 188.613 230.23 188.646 230.196C188.68 230.162 188.725 230.141 188.772 230.136C188.82 230.13 188.868 230.142 188.908 230.167C192.855 232.594 196.941 233.291 201.168 232.257C201.282 232.23 201.384 232.17 201.463 232.083C201.541 231.997 201.592 231.889 201.608 231.774C201.625 231.658 201.605 231.54 201.554 231.436C201.502 231.331 201.42 231.244 201.318 231.187C196.578 228.517 193.448 222.067 197.508 217.397C199.608 214.977 203.638 215.437 206.158 217.037C210.678 219.927 210.818 226.127 208.448 230.567C208.36 230.734 208.315 230.919 208.315 231.107C208.316 231.295 208.363 231.481 208.452 231.646C208.541 231.812 208.669 231.954 208.825 232.058C208.981 232.163 209.161 232.228 209.348 232.247C214.455 232.741 218.381 231.311 221.128 227.957C225.638 222.477 223.938 215.397 218.218 211.617C212.848 208.087 206.168 207.897 199.828 209.047C199.398 209.125 198.958 209.069 198.568 208.887C196.048 207.717 193.188 202.757 192.608 200.357C190.038 189.577 200.138 182.547 209.828 182.987C218.468 183.397 228.488 192.747 224.048 201.747C221.528 206.847 212.338 207.017 212.948 199.827C213.121 197.774 214.175 196.474 216.108 195.927C218.108 195.357 219.648 196.257 221.628 197.087C221.73 197.128 221.841 197.143 221.951 197.129C222.06 197.115 222.164 197.074 222.253 197.009C222.342 196.944 222.413 196.857 222.459 196.757C222.506 196.657 222.526 196.547 222.518 196.437C222.318 193.824 221.078 191.581 218.798 189.707C211.885 184.021 204.828 184.141 197.628 190.067C192.978 193.897 194.708 201.267 198.438 205.207C198.787 205.581 199.225 205.861 199.711 206.02C200.197 206.179 200.715 206.213 201.218 206.117C208.878 204.697 215.571 206.204 221.298 210.637C229.828 217.237 226.778 230.787 216.828 234.187C213.268 235.401 209.738 235.327 206.238 233.967C205.908 233.838 205.541 233.827 205.198 233.937C200.218 235.607 195.888 236.037 191.138 233.007C190.011 232.287 189.171 231.437 188.618 230.457ZM220.648 199.487L216.938 198.167C216.828 198.128 216.712 198.11 216.596 198.116C216.479 198.122 216.365 198.151 216.26 198.201C216.155 198.251 216.061 198.322 215.983 198.409C215.906 198.496 215.846 198.597 215.808 198.707L215.688 199.057C215.555 199.428 215.49 199.82 215.497 200.209C215.504 200.599 215.583 200.978 215.729 201.326C215.874 201.675 216.085 201.985 216.347 202.239C216.609 202.493 216.919 202.686 217.258 202.807L217.468 202.877C218.152 203.122 218.914 203.06 219.588 202.703C220.261 202.347 220.79 201.726 221.058 200.977L221.178 200.617C221.218 200.508 221.236 200.393 221.23 200.277C221.225 200.161 221.197 200.047 221.148 199.942C221.099 199.837 221.029 199.743 220.943 199.665C220.858 199.587 220.757 199.526 220.648 199.487ZM205.51 229.316C205.999 229.093 206.418 228.731 206.745 228.251C207.071 227.77 207.298 227.18 207.412 226.515C207.526 225.85 207.525 225.122 207.41 224.373C207.295 223.624 207.067 222.869 206.74 222.151C206.079 220.701 205.053 219.488 203.887 218.781C202.722 218.073 201.513 217.929 200.526 218.378C200.037 218.601 199.617 218.963 199.291 219.444C198.965 219.924 198.738 220.514 198.624 221.18C198.51 221.845 198.51 222.573 198.626 223.321C198.741 224.07 198.969 224.825 199.296 225.543C199.957 226.994 200.983 228.206 202.149 228.914C203.314 229.621 204.523 229.766 205.51 229.316Z" fill="#8D201E"/>
<path d="M319.868 238.857C315.648 247.067 305.358 248.837 298.278 243.207C292.911 238.154 291.561 232.081 294.228 224.987C294.284 224.834 294.307 224.67 294.295 224.508C294.283 224.346 294.236 224.189 294.158 224.047C293.891 223.554 293.381 223.061 292.628 222.567C292.225 222.3 291.917 221.913 291.75 221.461C291.582 221.01 291.564 220.518 291.698 220.057L291.788 219.757C291.839 219.579 291.931 219.414 292.055 219.276C292.179 219.137 292.333 219.029 292.505 218.96C292.677 218.891 292.862 218.861 293.046 218.875C293.23 218.888 293.409 218.944 293.568 219.037C294.948 219.847 297.038 221.767 298.928 222.607C305.898 225.667 316.258 220.557 313.688 211.707C313.657 211.603 313.604 211.506 313.531 211.424C313.459 211.342 313.369 211.278 313.269 211.235C313.168 211.192 313.06 211.171 312.951 211.175C312.842 211.179 312.735 211.207 312.638 211.257C310.991 212.104 309.988 212.621 309.628 212.807C304.218 215.577 298.138 213.747 294.068 209.377C293.726 209.01 293.51 208.542 293.453 208.042C293.395 207.542 293.498 207.036 293.748 206.597L293.788 206.527C293.896 206.342 294.043 206.182 294.219 206.057C294.394 205.933 294.594 205.848 294.805 205.807C295.016 205.766 295.234 205.771 295.443 205.821C295.652 205.871 295.848 205.966 296.018 206.097C297.298 207.097 299.138 209.437 301.188 210.137C303.774 211.024 306.271 210.764 308.678 209.357C312.924 206.877 314.418 203.254 313.158 198.487C311.428 191.937 302.988 189.497 297.898 194.367C297.618 194.634 296.764 195.624 295.338 197.337C295.126 197.588 294.824 197.746 294.498 197.777C294.184 197.804 293.931 197.787 293.738 197.727C293.349 197.601 293.026 197.314 292.831 196.923C292.637 196.533 292.586 196.067 292.688 195.617C292.921 194.571 293.604 193.467 294.738 192.307C300.388 186.487 309.818 186.997 314.568 193.327C317.758 197.577 317.748 201.857 316.228 206.667C316.034 207.272 316.07 207.924 316.328 208.497C317.954 212.204 318.024 215.791 316.538 219.257C316.463 219.431 316.431 219.62 316.443 219.81C316.455 219.999 316.512 220.183 316.608 220.347C316.814 220.701 317.491 221.681 318.638 223.287C321.928 227.877 322.188 233.727 319.868 238.857ZM318.128 232.527C318.008 229.221 316.801 226.267 314.508 223.667C314.345 223.482 314.118 223.366 313.873 223.342C313.628 223.317 313.383 223.387 313.188 223.537C308.841 226.844 303.888 227.787 298.328 226.367C298.077 226.305 297.813 226.343 297.589 226.471C297.365 226.6 297.2 226.81 297.128 227.057C295.894 231.297 296.494 235.287 298.928 239.027C299.022 239.174 299.155 239.291 299.313 239.366C299.47 239.441 299.645 239.471 299.818 239.452C299.991 239.434 300.156 239.367 300.294 239.26C300.431 239.154 300.537 239.011 300.598 238.847C303.208 231.957 310.698 229.467 317.398 232.977C317.475 233.018 317.563 233.038 317.65 233.035C317.738 233.032 317.823 233.006 317.897 232.961C317.971 232.915 318.031 232.851 318.072 232.775C318.112 232.699 318.131 232.614 318.128 232.527ZM316.544 236.084C316.372 235.594 316.027 235.169 315.527 234.835C315.028 234.501 314.385 234.263 313.634 234.137C312.883 234.01 312.04 233.996 311.152 234.096C310.264 234.196 309.349 234.408 308.459 234.72C307.569 235.032 306.722 235.437 305.965 235.913C305.209 236.388 304.558 236.925 304.05 237.493C303.543 238.06 303.188 238.647 303.006 239.22C302.824 239.792 302.819 240.34 302.991 240.831C303.163 241.321 303.508 241.746 304.008 242.08C304.507 242.414 305.151 242.652 305.901 242.778C306.652 242.905 307.496 242.919 308.384 242.819C309.272 242.719 310.187 242.507 311.076 242.195C311.966 241.883 312.814 241.478 313.57 241.002C314.326 240.527 314.977 239.99 315.485 239.422C315.993 238.855 316.347 238.268 316.529 237.695C316.711 237.123 316.716 236.575 316.544 236.084Z" fill="#8D201E"/>
<path d="M135.968 219.208C136.435 226.401 133.871 231.581 128.278 234.748C120.208 239.308 108.938 237.418 105.168 228.198C103.788 224.808 103.828 217.527 108.888 216.938C113.658 216.387 121.058 214.718 123.788 211.248C127.561 206.461 126.831 202.254 121.598 198.628C121.302 198.424 120.949 198.322 120.591 198.338C120.233 198.355 119.891 198.488 119.618 198.717L112.318 204.858C112.182 204.973 112.013 205.041 111.836 205.052C111.659 205.063 111.484 205.015 111.338 204.918L103.708 199.948C103.347 199.713 102.914 199.617 102.488 199.675C102.062 199.734 101.672 199.944 101.388 200.268C98.0081 204.134 98.3847 207.148 102.518 209.308C102.637 209.367 102.774 209.38 102.901 209.342C103.027 209.305 103.134 209.221 103.198 209.108C105.938 204.358 112.188 208.118 109.078 212.318C106.698 215.528 101.208 213.418 98.7981 211.368L95.4781 207.018C95.2205 206.677 95.0526 206.277 94.9897 205.855C94.9269 205.432 94.9709 205 95.118 204.598C96.378 201.191 98.4547 197.971 101.348 194.938C101.503 194.775 101.71 194.673 101.933 194.647C102.156 194.621 102.38 194.675 102.568 194.798L110.618 200.038C110.933 200.24 111.305 200.337 111.679 200.313C112.053 200.29 112.41 200.148 112.698 199.908L119.288 194.358C119.514 194.168 119.79 194.048 120.083 194.012C120.376 193.977 120.673 194.027 120.938 194.158C125.908 196.568 130.498 200.818 129.648 206.698C128.278 216.148 118.908 218.988 110.728 220.288C108.388 220.661 107.465 222.071 107.958 224.518C109.958 234.448 120.538 235.807 127.858 230.438C131.225 227.964 133.928 224.221 135.968 219.208Z" fill="#8D201E"/>
<path d="M19.378 294.637L19.138 298.717C19.1313 298.894 19.076 299.067 18.978 299.217L17.908 300.867C17.8719 300.921 17.8478 300.982 17.8373 301.046C17.8268 301.11 17.8302 301.176 17.8472 301.239C17.8642 301.303 17.8944 301.362 17.9359 301.413C17.9774 301.465 18.0293 301.507 18.088 301.537L22.988 303.977C23.2751 304.12 23.5195 304.336 23.6968 304.603C23.8741 304.871 23.9781 305.18 23.9983 305.5C24.0186 305.82 23.9544 306.139 23.8122 306.427C23.67 306.714 23.4547 306.959 23.188 307.137L18.108 310.527C17.9701 310.623 17.8751 310.768 17.8433 310.933C17.8115 311.097 17.8455 311.268 17.938 311.407C18.718 312.577 20.098 313.237 21.748 312.677C22.8347 312.304 24.3714 311.964 26.358 311.657C27.1477 311.534 27.9544 311.721 28.6089 312.18C29.2634 312.639 29.7147 313.333 29.868 314.117L29.918 314.387C29.9965 314.789 29.9951 315.201 29.9139 315.602C29.8327 316.003 29.6733 316.383 29.4448 316.722C29.2163 317.061 28.9232 317.352 28.5823 317.578C28.2414 317.803 27.8594 317.959 27.458 318.037C25.598 318.397 23.8414 318.351 22.188 317.897C20.358 317.387 18.648 318.217 17.928 319.617C17.8457 319.778 17.8266 319.964 17.8747 320.14C17.9227 320.315 18.0344 320.468 18.188 320.567L20.858 322.307C21.0207 322.414 21.2044 322.483 21.3962 322.511C21.588 322.538 21.7832 322.524 21.968 322.467C24.798 321.587 29.378 321.377 31.438 323.487C34.868 326.997 30.008 329.807 26.758 329.447C25.3647 329.294 23.5614 328.561 21.348 327.247C21.1078 327.105 20.8297 327.039 20.5521 327.061C20.2745 327.082 20.011 327.189 19.798 327.367L16.258 330.347C16.1663 330.425 16.0906 330.519 16.0354 330.626C15.9802 330.732 15.9465 330.848 15.9363 330.967C15.926 331.086 15.9395 331.206 15.9758 331.319C16.0122 331.432 16.0707 331.537 16.148 331.627L20.688 337.017C20.9412 337.322 21.2696 337.557 21.6412 337.697C22.0128 337.837 22.4148 337.879 22.808 337.817C25.1814 337.457 27.2747 337.534 29.088 338.047C30.968 338.587 32.568 340.657 31.678 342.557C29.698 346.757 23.538 343.527 20.808 342.317C20.4634 342.161 20.0781 342.119 19.708 342.197C13.578 343.427 7.50804 348.267 4.92804 353.357C0.338044 362.427 7.74804 370.037 16.518 371.147C21.578 371.794 25.9114 370.367 29.518 366.867C31.498 364.947 32.3814 362.874 32.168 360.647C32.0919 359.82 31.8479 359.016 31.4507 358.285C31.0536 357.555 30.5117 356.912 29.858 356.397L28.358 355.217C28.1221 355.033 27.8388 354.918 27.5408 354.888C27.2427 354.857 26.9421 354.911 26.6735 355.044C26.4049 355.177 26.1793 355.383 26.0226 355.638C25.866 355.893 25.7846 356.188 25.788 356.487C25.8214 359.454 24.2314 361.521 21.018 362.687C14.528 365.037 9.84804 357.597 14.518 352.597C19.698 347.037 29.268 350.277 33.618 355.297C38.908 361.417 33.858 369.807 27.678 372.667C20.1847 376.147 13.108 375.567 6.44803 370.927C-1.44197 365.427 -1.79196 355.327 3.76804 348.107C4.50137 347.154 5.96138 345.731 8.14805 343.837L16.668 339.347C16.8013 339.277 16.9162 339.177 17.0035 339.054C17.0907 338.931 17.1478 338.789 17.1702 338.641C17.1926 338.492 17.1796 338.339 17.1324 338.196C17.0851 338.053 17.0048 337.924 16.898 337.817L13.348 334.267C13.1618 334.081 12.9343 333.94 12.6829 333.855C12.4315 333.77 12.163 333.743 11.898 333.777C9.23805 334.127 8.54803 334.417 6.06803 333.507C5.90366 333.445 5.75575 333.345 5.63599 333.215C5.51623 333.085 5.42791 332.928 5.37803 332.757C3.90803 327.467 8.89803 328.277 11.878 328.817C12.1861 328.876 12.5034 328.858 12.8016 328.766C13.0999 328.673 13.37 328.509 13.588 328.287L16.678 325.197C16.8151 325.062 16.8962 324.88 16.9055 324.687C16.9147 324.495 16.8514 324.305 16.728 324.157C15.6947 322.924 14.808 322.101 14.068 321.687C13.9243 321.606 13.7637 321.557 13.5978 321.545C13.4318 321.533 13.2646 321.558 13.108 321.617C11.1947 322.371 9.36137 322.344 7.60804 321.537C3.54804 319.667 6.67804 313.507 11.298 316.117C13.1247 317.151 14.7347 317.111 16.128 315.997C16.2933 315.863 16.4018 315.671 16.4315 315.461C16.4612 315.251 16.4099 315.039 16.288 314.867C14.448 312.297 12.828 313.607 10.368 313.007C8.41468 312.534 7.66468 311.311 8.11802 309.337C8.25228 308.758 8.60476 308.253 9.10209 307.927C9.59941 307.601 10.2033 307.479 10.788 307.587C13.418 308.087 15.438 308.607 17.518 306.517C17.5776 306.457 17.622 306.383 17.6477 306.302C17.6734 306.221 17.6797 306.136 17.6661 306.052C17.6525 305.968 17.6193 305.889 17.5692 305.82C17.5192 305.752 17.4537 305.696 17.378 305.657L12.278 303.107C12.131 303.034 12.0005 302.931 11.8948 302.805C11.7891 302.68 11.7104 302.533 11.6635 302.376C11.6166 302.218 11.6026 302.053 11.6223 301.89C11.642 301.727 11.695 301.569 11.778 301.427C13.138 299.087 16.218 298.347 15.698 295.077L16.368 228.477C16.3703 228.202 16.4776 227.938 16.6675 227.741C16.8575 227.544 17.1156 227.428 17.388 227.417H17.428C17.5611 227.412 17.6938 227.433 17.8185 227.479C17.9432 227.525 18.0573 227.595 18.1541 227.686C18.251 227.776 18.3287 227.885 18.3826 228.005C18.4365 228.126 18.4655 228.256 18.468 228.387L19.378 294.637ZM22.1129 354.454C21.6925 353.894 21.0012 353.573 20.1911 353.563C19.3809 353.552 18.5183 353.852 17.7929 354.396C17.0676 354.941 16.539 355.685 16.3233 356.466C16.1077 357.247 16.2227 358.001 16.6431 358.561C17.0635 359.121 17.7548 359.441 18.565 359.452C19.3751 359.463 20.2378 359.163 20.9631 358.619C21.6885 358.074 22.2171 357.329 22.4327 356.548C22.6484 355.767 22.5333 355.014 22.1129 354.454Z" fill="#8D201E"/>
<path d="M412.338 317.507C413.151 318.487 413.001 319.491 411.888 320.517C410.921 321.397 409.281 322.464 406.968 323.717C406.854 323.78 406.759 323.872 406.69 323.982C406.622 324.093 406.583 324.219 406.578 324.348C406.573 324.477 406.602 324.605 406.661 324.719C406.721 324.832 406.809 324.928 406.918 324.997L408.498 326.027C408.775 326.206 409.092 326.315 409.421 326.345C409.75 326.374 410.082 326.324 410.388 326.197C411.981 325.531 413.894 325.181 416.128 325.147C416.501 325.141 416.873 325.209 417.219 325.348C417.566 325.487 417.882 325.694 418.147 325.956C418.413 326.219 418.623 326.532 418.766 326.878C418.908 327.223 418.98 327.594 418.978 327.967V328.187C418.975 329.032 418.655 329.844 418.081 330.463C417.506 331.082 416.72 331.462 415.878 331.527C413.911 331.681 411.874 331.544 409.768 331.117C408.708 330.897 407.734 331.471 406.848 332.837C406.753 332.977 406.708 333.145 406.718 333.315C406.729 333.485 406.796 333.648 406.908 333.777C408.158 335.207 409.518 336.157 411.558 335.487C412.411 335.207 414.128 335.171 416.708 335.377C419.574 335.604 421.138 337.027 421.398 339.647C421.45 340.162 421.336 340.677 421.074 341.114C420.812 341.552 420.416 341.886 419.948 342.067C416.628 343.334 413.328 342.861 410.048 340.647C409.832 340.503 409.574 340.432 409.314 340.447C409.055 340.461 408.807 340.56 408.608 340.727L405.138 343.647C404.943 343.812 404.82 344.048 404.798 344.302C404.776 344.557 404.855 344.81 405.018 345.007L409.628 350.487C409.777 350.661 409.964 350.797 410.175 350.883C410.385 350.97 410.612 351.006 410.838 350.987C414.288 350.667 421.228 350.297 420.738 355.467C420.644 356.434 420.164 357.084 419.298 357.417C416.188 358.607 412.918 357.747 410.218 355.867C409.923 355.662 409.583 355.529 409.226 355.477C408.869 355.424 408.503 355.456 408.158 355.567C402.651 357.334 398.368 360.154 395.308 364.027C389.618 371.217 392.288 379.627 400.438 383.087C407.608 386.117 416.778 384.467 420.638 377.067C422.648 373.217 419.028 369.377 415.748 367.857C415.668 367.821 415.58 367.803 415.492 367.806C415.405 367.809 415.318 367.832 415.241 367.874C415.164 367.915 415.097 367.974 415.046 368.046C414.995 368.118 414.961 368.2 414.948 368.287C414.608 370.307 414.598 371.797 413.638 373.267C412.111 375.627 409.718 376.597 406.458 376.177C401.088 375.477 399.718 369.277 403.418 365.797C408.038 361.437 415.328 362.947 420.158 366.417C428.838 372.657 423.418 383.447 415.078 386.597C406.138 389.967 395.588 387.527 390.508 379.067C388.361 375.487 388.038 371.511 389.538 367.137C391.978 360.007 398.758 355.267 405.518 352.607C405.607 352.572 405.686 352.516 405.749 352.444C405.813 352.373 405.858 352.287 405.881 352.195C405.905 352.103 405.906 352.007 405.884 351.915C405.863 351.823 405.82 351.738 405.758 351.667L402.368 347.637C402.28 347.534 402.172 347.45 402.051 347.393C401.93 347.337 401.799 347.307 401.668 347.307H396.678C395.964 347.307 395.28 347.024 394.776 346.519C394.271 346.015 393.988 345.331 393.988 344.617V344.347C393.987 343.98 394.064 343.616 394.213 343.28C394.361 342.944 394.579 342.643 394.851 342.396C395.124 342.149 395.445 341.962 395.794 341.847C396.143 341.732 396.512 341.691 396.878 341.727L400.568 342.107C400.821 342.133 401.078 342.107 401.323 342.031C401.569 341.956 401.798 341.832 401.998 341.667L405.488 338.727C405.556 338.67 405.612 338.601 405.653 338.522C405.694 338.443 405.719 338.357 405.726 338.269C405.734 338.181 405.724 338.092 405.696 338.007C405.669 337.923 405.625 337.845 405.568 337.777L403.508 335.317C403.352 335.131 403.146 334.994 402.915 334.919C402.683 334.845 402.435 334.837 402.198 334.897C399.808 335.497 397.908 336.167 395.998 334.647C394.044 333.087 393.984 331.35 395.818 329.437C396.057 329.192 396.378 329.036 396.728 328.997C398.508 328.817 400.391 329.181 402.378 330.087C402.675 330.222 403.002 330.285 403.327 330.271C403.653 330.257 403.967 330.167 404.242 330.008C404.517 329.849 404.744 329.627 404.902 329.362C405.06 329.096 405.145 328.795 405.148 328.487C405.154 328.167 404.711 327.647 403.818 326.927C403.532 326.7 403.178 326.57 402.808 326.557C402.461 326.544 401.254 326.531 399.188 326.517C398.62 326.511 398.073 326.304 397.646 325.931C397.218 325.559 396.939 325.047 396.858 324.487C396.691 323.354 396.971 322.281 397.698 321.267C401.718 321.774 404.641 321.204 406.468 319.557C406.511 319.518 406.545 319.469 406.565 319.414C406.585 319.358 406.592 319.299 406.584 319.241C406.576 319.183 406.554 319.127 406.52 319.08C406.486 319.032 406.44 318.993 406.388 318.967L401.688 316.617C401.425 316.485 401.199 316.29 401.03 316.049C400.861 315.808 400.754 315.529 400.719 315.236C400.685 314.944 400.723 314.648 400.831 314.374C400.939 314.1 401.113 313.857 401.338 313.667L403.838 311.557C404.02 311.404 404.166 311.213 404.268 310.997C404.37 310.781 404.424 310.546 404.428 310.307L405.148 241.757C405.151 241.478 405.252 241.21 405.433 240.998C405.613 240.786 405.863 240.644 406.138 240.597H406.178C406.302 240.577 406.429 240.584 406.55 240.617C406.672 240.65 406.785 240.709 406.881 240.79C406.978 240.87 407.056 240.971 407.111 241.084C407.165 241.198 407.195 241.321 407.198 241.447C407.638 265.087 407.908 288.234 408.008 310.887C408.018 312.547 407.568 313.287 406.668 314.377C406.616 314.44 406.58 314.513 406.562 314.593C406.544 314.672 406.545 314.754 406.564 314.832C406.584 314.911 406.621 314.984 406.674 315.046C406.727 315.107 406.793 315.156 406.868 315.187L412.338 317.507ZM410.957 367.757C410.521 367.193 409.815 366.874 408.995 366.87C408.174 366.867 407.307 367.179 406.583 367.739C406.224 368.016 405.912 368.345 405.663 368.708C405.415 369.071 405.235 369.46 405.134 369.854C405.034 370.248 405.014 370.638 405.076 371.002C405.139 371.366 405.282 371.697 405.498 371.977C405.934 372.541 406.64 372.861 407.461 372.864C408.281 372.868 409.149 372.555 409.873 371.996C410.231 371.719 410.544 371.389 410.792 371.026C411.041 370.663 411.22 370.274 411.321 369.88C411.422 369.487 411.442 369.097 411.379 368.732C411.317 368.368 411.174 368.037 410.957 367.757Z" fill="#8D201E"/>
<path d="M104.388 292.288C104.388 294.16 103.644 295.956 102.32 297.28C100.996 298.604 99.2 299.348 97.3276 299.348C95.4551 299.348 93.6594 298.604 92.3354 297.28C91.0114 295.956 90.2676 294.16 90.2676 292.288C90.2676 290.415 91.0114 288.619 92.3354 287.295C93.6594 285.971 95.4551 285.228 97.3276 285.228C99.2 285.228 100.996 285.971 102.32 287.295C103.644 288.619 104.388 290.415 104.388 292.288ZM101.808 292.338C101.808 291.157 101.339 290.025 100.504 289.191C99.6696 288.356 98.5378 287.888 97.3576 287.888C96.1774 287.888 95.0455 288.356 94.2109 289.191C93.3764 290.025 92.9076 291.157 92.9076 292.338C92.9076 293.518 93.3764 294.65 94.2109 295.484C95.0455 296.319 96.1774 296.788 97.3576 296.788C98.5378 296.788 99.6696 296.319 100.504 295.484C101.339 294.65 101.808 293.518 101.808 292.338Z" fill="#8D201E"/>
<path d="M348.658 295.458V296.258C348.658 296.599 348.584 296.937 348.44 297.246C348.297 297.555 348.088 297.829 347.828 298.048C341.438 303.438 336.478 295.658 331.438 293.698C325.398 291.348 318.688 292.508 314.028 297.288C312.658 298.688 311.408 300.188 310.388 300.118C310.254 300.108 310.124 300.065 310.009 299.993C309.894 299.92 309.798 299.82 309.727 299.7C309.656 299.579 309.613 299.443 309.601 299.3C309.589 299.157 309.609 299.013 309.658 298.878C310.225 297.311 311.128 296.018 312.368 294.998C319.161 289.411 326.308 288.371 333.808 291.878C336.708 293.238 339.448 296.028 342.358 297.358C343.451 297.851 345.188 297.054 347.568 294.968C347.664 294.884 347.782 294.83 347.908 294.811C348.034 294.793 348.162 294.81 348.277 294.862C348.392 294.914 348.49 294.998 348.557 295.103C348.625 295.209 348.66 295.332 348.658 295.458Z" fill="#8D201E"/>
<path d="M77.4282 306.617C77.3839 306.529 77.3149 306.455 77.2296 306.405C77.1442 306.355 77.0459 306.331 76.9462 306.335C76.8466 306.339 76.7496 306.372 76.6667 306.429C76.5838 306.486 76.5184 306.565 76.4782 306.657L75.3582 309.287C75.252 309.533 75.1142 309.765 74.9482 309.977C71.2182 314.787 62.9082 314.217 62.3182 307.397C61.9082 302.537 64.8082 299.837 69.5082 299.567C73.7682 299.321 77.1549 301.201 79.6682 305.207C82.0215 308.967 82.1915 312.901 80.1782 317.007C76.3582 324.817 67.0382 325.687 60.6182 320.377C60.3203 320.13 60.1071 319.795 60.0085 319.42C59.9099 319.046 59.9308 318.65 60.0682 318.287L60.0982 318.217C60.1547 318.067 60.244 317.931 60.3597 317.819C60.4754 317.708 60.6147 317.623 60.7675 317.572C60.9204 317.52 61.0831 317.503 61.244 317.521C61.4049 317.539 61.56 317.593 61.6982 317.677C62.6882 318.307 63.7282 319.627 65.1382 320.157C74.5082 323.687 81.9882 315.357 77.4282 306.617ZM73.4716 303.804C73.2074 303.341 72.8387 302.943 72.3864 302.634C71.9341 302.325 71.4072 302.111 70.8356 302.003C70.2641 301.895 69.6591 301.895 69.0553 302.005C68.4516 302.114 67.8607 302.33 67.3166 302.641C66.2177 303.268 65.3758 304.24 64.976 305.345C64.5762 306.449 64.6513 307.595 65.1848 308.531C65.449 308.994 65.8177 309.391 66.27 309.7C66.7223 310.009 67.2492 310.224 67.8208 310.332C68.3923 310.44 68.9973 310.439 69.6011 310.33C70.2049 310.22 70.7957 310.004 71.3398 309.694C72.4387 309.067 73.2806 308.094 73.6804 306.99C74.0802 305.885 74.0051 304.739 73.4716 303.804Z" fill="#8D201E"/>
<path d="M93.9473 306.537C93.9407 306.551 93.874 306.907 93.7473 307.607C93.254 310.334 91.5773 311.961 88.7173 312.487C83.7473 313.407 80.2473 308.877 82.8473 304.447C84.9673 300.847 90.0573 300.787 93.5273 302.207C98.6873 304.317 101.567 310.477 100.417 315.867C98.7373 323.777 91.9273 329.107 84.0973 324.497C83.7872 324.314 83.5394 324.041 83.3861 323.715C83.2328 323.388 83.1809 323.023 83.2373 322.667L83.2573 322.517C83.2814 322.373 83.3402 322.236 83.4286 322.119C83.517 322.001 83.6323 321.908 83.7644 321.846C83.8966 321.784 84.0416 321.755 84.1868 321.762C84.332 321.769 84.4729 321.812 84.5973 321.887C87.9973 323.887 90.9373 324.064 93.4173 322.417C95.9173 320.751 97.4107 318.327 97.8974 315.147C98.2907 312.561 97.5973 309.734 95.8173 306.667C95.7248 306.507 95.5943 306.372 95.4373 306.274C95.2803 306.176 95.1016 306.118 94.9169 306.105C94.7322 306.092 94.5472 306.125 94.3782 306.2C94.2091 306.276 94.0612 306.391 93.9473 306.537ZM91.0761 305.156C90.8847 304.83 90.6171 304.553 90.2886 304.341C89.9601 304.128 89.5771 303.985 89.1614 303.919C88.7458 303.852 88.3056 303.865 87.8661 303.955C87.4266 304.045 86.9964 304.211 86.5999 304.443C85.7993 304.913 85.185 305.625 84.8922 306.423C84.5994 307.221 84.652 308.04 85.0385 308.698C85.2299 309.025 85.4975 309.302 85.8261 309.514C86.1546 309.727 86.5376 309.87 86.9533 309.936C87.3689 310.002 87.809 309.99 88.2485 309.9C88.688 309.81 89.1183 309.644 89.5147 309.411C90.3153 308.942 90.9296 308.229 91.2225 307.431C91.5153 306.634 91.4626 305.815 91.0761 305.156Z" fill="#8D201E"/>
<path d="M342.048 317.187C342.314 322.041 340.961 326.091 337.988 329.337C332.968 334.817 326.721 336.221 319.248 333.547C315.388 331.954 312.694 329.741 311.168 326.907C306.741 318.681 308.261 311.347 315.728 304.907C315.847 304.805 315.986 304.729 316.135 304.682C316.285 304.635 316.443 304.619 316.599 304.635C316.755 304.651 316.907 304.698 317.044 304.774C317.181 304.85 317.301 304.953 317.398 305.077L317.438 305.127C317.646 305.395 317.741 305.733 317.702 306.07C317.663 306.407 317.492 306.715 317.228 306.927C312.481 310.734 310.728 315.717 311.968 321.877C311.985 321.971 312.028 322.058 312.092 322.128C312.156 322.199 312.238 322.25 312.33 322.276C312.422 322.302 312.519 322.302 312.61 322.276C312.702 322.249 312.784 322.198 312.848 322.127C319.818 314.607 331.138 314.777 337.278 323.237C337.37 323.366 337.497 323.466 337.643 323.526C337.79 323.586 337.951 323.604 338.108 323.577C338.265 323.55 338.412 323.479 338.532 323.373C338.652 323.267 338.741 323.13 338.788 322.977C340.574 317.097 339.088 311.834 334.328 307.187C334.231 307.091 334.161 306.97 334.125 306.838C334.089 306.705 334.089 306.566 334.125 306.435C334.161 306.303 334.231 306.184 334.328 306.089C334.425 305.995 334.546 305.929 334.678 305.897L334.918 305.837C335.314 305.74 335.729 305.746 336.121 305.855C336.514 305.963 336.871 306.171 337.158 306.457C340.064 309.331 341.694 312.907 342.048 317.187ZM324.678 332.187C328.331 332.427 331.841 331.167 335.208 328.407C335.546 328.134 335.791 327.761 335.907 327.341C336.024 326.922 336.007 326.476 335.858 326.067C335.564 325.267 334.971 324.427 334.078 323.547C331.418 320.914 328.568 319.497 325.528 319.297C322.488 319.097 319.478 320.127 316.498 322.387C315.498 323.147 314.798 323.904 314.398 324.657C314.198 325.043 314.123 325.481 314.184 325.912C314.245 326.342 314.439 326.742 314.738 327.057C317.711 330.237 321.024 331.947 324.678 332.187Z" fill="#8D201E"/>
<path d="M212.678 405.877C212.756 405.887 212.835 405.879 212.909 405.855C212.984 405.831 213.051 405.79 213.108 405.737C225.828 393.357 239.268 383.057 255.908 377.337C260.348 375.804 265.775 374.794 272.188 374.307C285.958 373.267 300.068 376.827 308.018 388.847C314.718 398.987 313.098 411.217 305.628 420.587C293.398 435.917 270.378 435.877 253.428 430.177C240.441 425.811 227.758 420.404 215.378 413.957C213.878 413.177 212.558 413.187 211.418 413.987C200.308 421.767 187.818 428.477 175.798 432.157C160.938 436.707 142.328 437.147 128.458 429.217C118.748 423.657 111.738 412.917 113.248 401.417C114.468 392.057 120.758 384.207 128.958 379.637C133.471 377.124 139.025 375.764 145.618 375.557C161.058 375.077 173.508 380.787 186.408 388.717C196.101 394.677 204.451 400.264 211.458 405.477C211.591 405.584 211.788 405.671 212.048 405.737C212.275 405.804 212.485 405.851 212.678 405.877ZM217.248 410.677C226.648 415.604 236.565 420.071 246.998 424.077C252.091 426.031 257.105 427.587 262.038 428.747C276.058 432.047 293.118 430.057 302.648 418.437C307.295 412.791 309.235 406.647 308.468 400.007C306.968 387.047 293.698 378.687 281.308 377.727C270.821 376.914 260.885 378.864 251.498 383.577C238.311 390.204 226.831 398.877 217.058 409.597C216.988 409.676 216.937 409.77 216.908 409.871C216.879 409.973 216.874 410.079 216.892 410.183C216.91 410.287 216.952 410.385 217.013 410.471C217.075 410.557 217.155 410.627 217.248 410.677ZM208.548 408.037C200.075 401.644 191.011 395.621 181.358 389.967C176.651 387.214 171.958 384.864 167.278 382.917C153.968 377.377 136.808 376.567 125.508 386.487C120.008 391.307 117.095 397.057 116.768 403.737C116.138 416.767 127.878 427.187 139.958 430.147C150.178 432.654 160.305 432.344 170.338 429.217C184.431 424.824 197.171 418.131 208.558 409.137C208.641 409.071 208.707 408.987 208.752 408.891C208.798 408.796 208.821 408.691 208.82 408.585C208.819 408.479 208.794 408.375 208.747 408.28C208.7 408.185 208.632 408.102 208.548 408.037Z" fill="#8D201E"/>
<path d="M26.6776 398.858C26.8134 399.017 26.988 399.14 27.1847 399.212C27.3814 399.285 27.5935 399.306 27.8005 399.272C28.0076 399.239 28.2026 399.153 28.3667 399.023C28.5309 398.892 28.6586 398.722 28.7376 398.528C30.1976 394.934 29.4176 392.251 26.3976 390.478C20.3076 386.888 11.5376 388.418 8.15762 395.088C7.90429 395.581 7.84764 396.478 7.98764 397.778C8.33764 400.928 12.2576 403.748 14.9376 404.998C18.7376 406.778 23.1743 407.778 28.2476 407.998C32.2876 408.178 35.0476 411.848 33.9076 415.928C32.6976 420.268 26.9576 423.088 22.9176 423.998C22.7096 424.049 22.5248 424.168 22.3925 424.337C22.2602 424.505 22.1881 424.713 22.1876 424.928L21.9876 446.788C21.985 447.147 21.8409 447.492 21.5864 447.746C21.3319 448.001 20.9875 448.145 20.6276 448.147H20.1076C19.8468 448.147 19.5964 448.043 19.4111 447.858C19.2257 447.673 19.1202 447.421 19.1176 447.157L19.0776 425.678C19.0784 425.554 19.0529 425.432 19.0027 425.319C18.9526 425.205 18.8788 425.104 18.7864 425.021C18.694 424.938 18.5849 424.875 18.4662 424.837C18.3475 424.798 18.2219 424.785 18.0976 424.798C13.9776 425.238 10.2676 424.744 6.96762 423.318C2.39762 421.328 2.40762 415.668 6.24762 413.198C8.89428 411.484 12.0176 411.277 15.6176 412.577C18.9243 413.771 21.1476 416.127 22.2876 419.647C22.3524 419.85 22.4921 420.019 22.6781 420.122C22.8641 420.224 23.0822 420.251 23.2876 420.198C25.6376 419.558 30.6776 416.938 30.7276 414.238C30.743 413.589 30.5107 412.958 30.0771 412.471C29.6434 411.984 29.0402 411.675 28.3876 411.608C20.5876 410.808 13.5176 409.757 7.80762 404.377C4.47762 401.247 3.16762 396.728 5.52762 392.518C8.89762 386.518 15.5476 384.348 22.0776 385.268C28.3476 386.158 35.1876 391.288 32.7376 398.248C30.8976 403.448 20.8176 408.228 16.2376 403.948C14.3176 402.158 14.6076 398.508 16.3676 396.638C18.7876 394.098 23.2576 394.898 25.3676 397.338C26.0476 398.124 26.4843 398.631 26.6776 398.858ZM23.4897 400.763C23.5417 400.321 23.3174 399.864 22.8662 399.494C22.4149 399.124 21.7737 398.87 21.0836 398.789C20.3935 398.708 19.711 398.806 19.1863 399.062C18.6615 399.317 18.3375 399.709 18.2855 400.152C18.2335 400.594 18.4579 401.051 18.9091 401.421C19.3603 401.791 20.0015 402.045 20.6916 402.126C21.3817 402.207 22.0642 402.109 22.589 401.853C23.1137 401.598 23.4377 401.206 23.4897 400.763ZM17.9276 421.337C18.082 421.323 18.2302 421.27 18.3593 421.185C18.4884 421.099 18.5944 420.983 18.6676 420.846C18.7408 420.709 18.7792 420.557 18.7792 420.402C18.7792 420.247 18.7409 420.094 18.6676 419.957C16.8676 416.547 10.8276 413.018 7.59762 416.818C7.4115 417.035 7.27586 417.291 7.20044 417.567C7.12502 417.844 7.1117 418.133 7.16141 418.415C7.21112 418.697 7.32262 418.965 7.48794 419.199C7.65327 419.432 7.8683 419.627 8.11761 419.767C10.6243 421.201 13.8943 421.724 17.9276 421.337Z" fill="#8D201E"/>
<path d="M414.808 412.228C414.943 412.39 415.117 412.515 415.315 412.59C415.512 412.665 415.725 412.687 415.934 412.655C416.142 412.623 416.339 412.537 416.505 412.406C416.67 412.275 416.799 412.103 416.878 411.908C418.345 408.314 417.568 405.624 414.548 403.838C408.458 400.238 399.678 401.758 396.278 408.428C396.025 408.921 395.968 409.818 396.108 411.118C396.448 414.268 400.368 417.098 403.048 418.358C406.848 420.144 411.288 421.154 416.368 421.388C420.408 421.568 423.168 425.248 422.018 429.338C420.798 433.678 415.048 436.488 411.008 437.398C410.8 437.447 410.614 437.564 410.48 437.73C410.346 437.897 410.271 438.104 410.268 438.318L410.038 460.208C410.035 460.569 409.89 460.915 409.633 461.17C409.377 461.425 409.03 461.568 408.668 461.568H408.148C407.885 461.568 407.634 461.462 407.448 461.275C407.262 461.087 407.158 460.833 407.158 460.568V439.068C407.157 438.944 407.131 438.821 407.08 438.708C407.029 438.595 406.955 438.494 406.863 438.411C406.77 438.328 406.662 438.265 406.544 438.227C406.426 438.188 406.301 438.175 406.178 438.188C402.051 438.621 398.338 438.121 395.038 436.688C390.468 434.688 390.488 429.018 394.338 426.548C396.991 424.841 400.118 424.641 403.718 425.948C407.025 427.148 409.245 429.511 410.378 433.038C410.443 433.24 410.583 433.409 410.769 433.512C410.955 433.614 411.173 433.641 411.378 433.588C413.738 432.948 418.788 430.338 418.838 427.638C418.854 426.987 418.621 426.353 418.188 425.864C417.754 425.375 417.151 425.065 416.498 424.998C408.698 424.188 401.618 423.118 395.908 417.728C392.588 414.588 391.278 410.058 393.648 405.848C397.038 399.848 403.698 397.688 410.228 398.618C416.508 399.518 423.348 404.668 420.878 411.628C419.028 416.838 408.928 421.598 404.348 417.308C402.438 415.518 402.728 411.858 404.498 409.988C406.918 407.458 411.398 408.258 413.508 410.708C414.181 411.494 414.615 412.001 414.808 412.228ZM411.646 414.07C411.701 413.644 411.476 413.199 411.021 412.834C410.565 412.468 409.916 412.212 409.217 412.121C408.517 412.03 407.824 412.112 407.29 412.349C406.757 412.586 406.426 412.959 406.37 413.385C406.315 413.811 406.54 414.256 406.995 414.621C407.451 414.987 408.1 415.243 408.799 415.334C409.499 415.425 410.192 415.343 410.726 415.106C411.259 414.869 411.59 414.496 411.646 414.07ZM394.878 433.058L405.988 435.478C406.032 435.488 406.078 435.489 406.122 435.482C406.167 435.474 406.209 435.458 406.248 435.434C406.286 435.409 406.319 435.378 406.345 435.341C406.37 435.304 406.389 435.262 406.398 435.218L406.458 434.938C406.593 434.325 406.585 433.687 406.436 433.062C406.287 432.436 406 431.834 405.59 431.291C405.181 430.747 404.657 430.273 404.049 429.895C403.441 429.517 402.761 429.242 402.048 429.088L401.118 428.888C400.406 428.732 399.674 428.699 398.965 428.79C398.256 428.881 397.583 429.094 396.985 429.417C396.387 429.74 395.875 430.167 395.479 430.673C395.083 431.18 394.811 431.755 394.678 432.368L394.618 432.648C394.608 432.692 394.606 432.737 394.614 432.782C394.621 432.826 394.638 432.869 394.662 432.907C394.686 432.945 394.718 432.978 394.755 433.004C394.792 433.03 394.834 433.048 394.878 433.058Z" fill="#8D201E"/>
</svg>
