<svg width="2166" height="364" viewBox="0 0 2166 364" fill="none" xmlns="http://www.w3.org/2000/svg">
<path fill-rule="evenodd" clip-rule="evenodd" d="M221.736 98.9364C223.527 96.1521 226.288 93.9972 229.7 92.9942C236.885 90.9032 244.433 94.7438 247.024 101.71C247.376 102.66 247.631 103.641 247.791 104.633C248.409 107.898 248.346 110.661 247.887 113.114C258.431 117.232 266.906 126.055 270.232 136.947C272.513 144.426 272.3 151.979 270.509 159.286C276.053 154.891 283.824 155.211 289.005 160.033C293.952 164.631 294.975 171.875 291.628 177.614C290.007 181.327 289.688 189.883 289.656 193.212C290.455 197.607 307.225 221.888 310.476 227.67C322.896 249.721 329.132 273.053 321.979 298.091C306.244 353.225 209.391 364 162.505 364C115.609 364 18.7559 353.225 3.02085 298.091C-4.13232 273.053 2.10393 249.721 14.5238 227.67C17.7755 221.888 34.5448 197.607 35.3124 193.659C35.3124 189.883 34.9927 181.327 33.3722 177.614C30.0246 171.875 31.0483 164.631 35.9946 160.033C41.1756 155.211 48.9688 154.902 54.4909 159.286C52.7 151.979 52.4868 144.425 54.7681 136.947C58.0837 126.055 66.5697 117.232 77.1129 113.114C76.6439 110.639 76.5905 107.855 77.2197 104.558C77.3796 103.566 77.6462 102.595 77.9979 101.657C80.5992 94.7224 88.1255 90.9137 95.3001 92.9942C98.2956 93.8688 100.801 95.6505 102.581 97.9654C102.518 93.0472 103.136 88.0865 104.436 83.1044C107.73 70.5477 114.895 59.6343 122.879 49.5954C128.284 42.8211 147.825 22.2312 148.273 13.9315C148.284 13.6967 148.284 13.4622 148.305 13.2274C148.849 5.57838 155.352 -0.267898 163.006 0.00947352C170.661 0.276307 176.727 6.57044 176.727 14.2409C176.727 14.2943 176.727 14.3474 176.727 14.4008C176.727 14.5397 176.727 14.6677 176.727 14.8062C176.471 23.2128 194.764 44.1545 199.978 50.9183C211.108 65.3955 221.16 81.4296 221.736 98.9364ZM162.505 81.2806C162.505 81.2806 170.916 344.701 206.886 347.027C257.311 340.626 300.071 323.013 308.301 294.187C321.819 246.82 275.455 211.06 275.455 193.66C275.455 176.26 279.325 170.467 279.325 170.467C279.325 170.467 267.012 180.133 263.622 194.865C260.243 209.609 273.526 216.618 261.692 227.009C249.859 237.4 217.504 215.412 244.07 180.133C270.626 144.853 251.799 129.384 241.65 126.002C241.65 126.002 254.454 138.089 248.654 147.989C242.855 157.9 226.437 147.509 226.683 133.256C226.917 118.993 235.616 114.651 233.687 106.671C233.687 106.671 235.371 110.544 223.058 120.209C210.745 129.864 214.604 140.266 214.604 140.266C214.604 140.266 198.912 128.424 204.946 113.435C220.286 75.3922 161.461 42.3416 162.505 14.2416C161.652 42.2351 102.507 69.9087 120.054 113.435C126.088 128.424 110.395 140.266 110.395 140.266C110.395 140.266 114.254 129.864 101.941 120.209C89.6283 110.544 91.3128 106.671 91.3128 106.671C89.3831 114.651 98.0718 118.993 98.317 133.256C98.5622 147.509 82.1449 157.9 76.3453 147.989C70.5457 138.089 83.3496 126.002 83.3496 126.002C73.2005 129.384 54.3736 144.853 80.9295 180.133C107.496 215.413 75.1407 237.4 63.3071 227.009C51.4736 216.618 64.757 209.609 61.3775 194.865C57.9979 180.133 45.6743 170.467 45.6743 170.467C45.6743 170.467 49.5443 176.26 49.5443 193.66C49.5443 211.06 3.18066 246.82 16.6983 294.187C24.9286 323.013 67.71 340.626 118.135 347.016C154.083 344.595 162.505 81.2806 162.505 81.2806Z" fill="white"/>
<path d="M519.6 232.4C519.6 254 514.4 269.5 504 278.9C493.8 288.3 478.3 293 457.5 293C450.7 293 444.3 292.5 438.3 291.5C432.5 290.5 427 289.4 421.8 288.2C419.2 287.8 417.3 286.9 416.1 285.5C415.1 283.9 414.7 281.5 414.9 278.3L417.6 251.3C417.8 247.1 419.7 245.3 423.3 245.9C425.9 246.5 428.7 247.3 431.7 248.3C434.9 249.3 438.7 249.8 443.1 249.8C451.1 249.8 457.1 247.6 461.1 243.2C465.1 238.6 467.1 230.7 467.1 219.5V73.1C467.1 69.3 468.8 67.4 472.2 67.4H515.1C518.1 67.4 519.6 69.2 519.6 72.8V232.4ZM601.88 282.8C601.88 285.4 601.28 287.3 600.08 288.5C598.88 289.5 596.78 290 593.78 290H562.28C559.68 290 557.88 289.5 556.88 288.5C556.08 287.5 555.68 285.9 555.68 283.7V136.7C555.68 132.9 557.28 131 560.48 131H597.38C600.38 131 601.88 132.7 601.88 136.1V282.8ZM602.48 104.3C602.48 109.3 599.78 111.8 594.38 111.8H561.98C559.38 111.8 557.58 111.2 556.58 110C555.78 108.8 555.38 107.1 555.38 104.9V73.4C555.38 69.4 557.08 67.4 560.48 67.4H597.68C600.88 67.4 602.48 69.3 602.48 73.1V104.3ZM745.474 290C743.874 290 742.374 289.6 740.974 288.8C739.774 287.8 739.174 286.2 739.174 284V275.6C739.174 274.2 738.774 273.4 737.974 273.2C737.174 273 736.174 273.4 734.974 274.4C731.774 277.4 728.174 280.4 724.174 283.4C720.174 286.2 715.474 288.5 710.074 290.3C704.674 292.1 698.374 293 691.174 293C678.974 293 668.174 290 658.774 284C649.374 278 641.974 269 636.574 257C631.174 244.8 628.474 229.7 628.474 211.7C628.474 194.9 631.374 180.3 637.174 167.9C643.174 155.3 651.174 145.5 661.174 138.5C671.174 131.5 682.174 128 694.174 128C702.174 128 709.274 129.3 715.474 131.9C721.674 134.5 727.674 138.5 733.474 143.9C735.074 145.1 736.274 145.6 737.074 145.4C738.074 145 738.574 143.7 738.574 141.5V72.8C738.574 69.2 740.174 67.4 743.374 67.4H779.974C783.174 67.4 784.774 69.3 784.774 73.1V283.7C784.774 285.9 784.274 287.5 783.274 288.5C782.274 289.5 780.474 290 777.874 290H745.474ZM738.574 172.4C734.174 167.6 729.674 164 725.074 161.6C720.674 159 715.574 157.7 709.774 157.7C703.174 157.7 697.174 159.6 691.774 163.4C686.574 167 682.474 172.7 679.474 180.5C676.674 188.3 675.274 198.5 675.274 211.1C675.274 223.9 676.674 234.2 679.474 242C682.474 249.8 686.474 255.5 691.474 259.1C696.674 262.5 702.574 264.2 709.174 264.2C714.774 264.2 719.774 262.9 724.174 260.3C728.574 257.7 732.074 254.4 734.674 250.4C737.274 246.4 738.574 242.2 738.574 237.8V172.4ZM857.787 131C862.187 131 864.387 133 864.387 137V146C864.387 147.2 864.787 147.9 865.587 148.1C866.387 148.1 867.387 147.6 868.587 146.6C871.787 143.6 875.287 140.7 879.087 137.9C883.087 135.1 887.787 132.8 893.187 131C898.587 129 904.987 128 912.387 128C924.187 128 934.687 131 943.887 137C953.087 142.8 960.387 151.7 965.787 163.7C971.187 175.5 973.887 190.7 973.887 209.3C973.887 228.5 971.087 244.3 965.487 256.7C959.887 269.1 952.287 278.3 942.687 284.3C933.087 290.1 922.187 293 909.987 293C902.187 293 894.987 291.8 888.387 289.4C881.787 287 875.587 283.1 869.787 277.7C867.787 275.7 866.287 274.8 865.287 275C864.487 275.2 864.087 276.7 864.087 279.5V334.4C864.087 337.8 862.587 339.5 859.587 339.5H822.687C819.487 339.5 817.887 337.7 817.887 334.1V137.6C817.887 135.4 818.387 133.8 819.387 132.8C820.387 131.6 822.187 131 824.787 131H857.787ZM864.087 248.9C868.087 253.3 872.387 256.9 876.987 259.7C881.587 262.5 886.887 263.9 892.887 263.9C899.887 263.9 905.887 262.1 910.887 258.5C916.087 254.7 920.087 248.8 922.887 240.8C925.687 232.6 927.087 221.8 927.087 208.4C927.087 195.4 925.687 185.2 922.887 177.8C920.087 170.4 916.087 165.1 910.887 161.9C905.887 158.7 900.187 157.1 893.787 157.1C888.187 157.1 883.087 158.3 878.487 160.7C874.087 162.9 870.587 165.9 867.987 169.7C865.387 173.3 864.087 177.1 864.087 181.1V248.9ZM1007.3 290C1003.1 290 1001 288 1001 284V73.1C1001 69.3 1002.6 67.4 1005.8 67.4H1041.8C1044.8 67.4 1046.3 69.1 1046.3 72.5V149.3C1046.3 150.5 1046.6 151.3 1047.2 151.7C1047.8 151.9 1048.7 151.5 1049.9 150.5C1056.1 144.9 1061.9 140.5 1067.3 137.3C1072.9 134.1 1078.4 131.8 1083.8 130.4C1089.4 128.8 1095 128 1100.6 128C1115.8 128 1127.5 132.2 1135.7 140.6C1143.9 149 1148 160.8 1148 176V282.8C1148 287.6 1145.6 290 1140.8 290H1107.5C1105.5 290 1104 289.6 1103 288.8C1102.2 287.8 1101.8 286.2 1101.8 284V182.6C1101.8 175.8 1100 170.6 1096.4 167C1092.8 163.2 1087.4 161.3 1080.2 161.3C1076 161.3 1072.1 162 1068.5 163.4C1064.9 164.8 1061.4 166.9 1058 169.7C1054.6 172.3 1051 175.7 1047.2 179.9V283.1C1047.2 287.7 1044.6 290 1039.4 290H1007.3ZM1265.2 274.7C1259 280.3 1252 284.8 1244.2 288.2C1236.6 291.4 1227.8 293 1217.8 293C1202.6 293 1190.6 288.9 1181.8 280.7C1173.2 272.5 1168.9 262 1168.9 249.2C1168.9 238 1172.4 228.2 1179.4 219.8C1186.4 211.4 1196.4 204.9 1209.4 200.3C1222.4 195.5 1237.9 192.9 1255.9 192.5L1266.4 191.6C1267.6 191.6 1268.7 191.3 1269.7 190.7C1270.7 190.1 1271.2 189 1271.2 187.4V181.1C1271.2 173.5 1269 167.6 1264.6 163.4C1260.2 159 1253.9 156.8 1245.7 156.8C1239.7 156.8 1233.9 158.2 1228.3 161C1222.9 163.6 1218.3 168.2 1214.5 174.8C1213.9 176.2 1213.2 177.1 1212.4 177.5C1211.6 177.9 1210.1 177.9 1207.9 177.5L1177.9 170.6C1176.7 170.2 1175.8 169.6 1175.2 168.8C1174.8 167.8 1175.2 165.8 1176.4 162.8C1181.4 151 1190 142.3 1202.2 136.7C1214.6 130.9 1229.8 128 1247.8 128C1264.4 128 1277.6 130.1 1287.4 134.3C1297.2 138.5 1304.3 144.4 1308.7 152C1313.1 159.4 1315.3 168.1 1315.3 178.1V283.4C1315.3 285.8 1314.9 287.5 1314.1 288.5C1313.3 289.5 1311.8 290 1309.6 290H1278.7C1276.5 290 1274.9 289.2 1273.9 287.6C1273.1 286 1272.6 284 1272.4 281.6L1271.8 275C1271.4 271.4 1269.2 271.3 1265.2 274.7ZM1271.2 219.2C1271.2 215.8 1269.7 214.1 1266.7 214.1L1258.3 214.7C1253.1 214.9 1247.9 215.7 1242.7 217.1C1237.5 218.3 1232.8 220.1 1228.6 222.5C1224.4 224.7 1220.9 227.6 1218.1 231.2C1215.5 234.6 1214.2 238.6 1214.2 243.2C1214.2 249.2 1216.3 254 1220.5 257.6C1224.7 261 1230.5 262.7 1237.9 262.7C1242.9 262.7 1247.3 261.9 1251.1 260.3C1255.1 258.7 1258.5 256.8 1261.3 254.6C1264.3 252 1266.7 249.4 1268.5 246.8C1270.3 244.2 1271.2 241.5 1271.2 238.7V219.2ZM1349.65 155C1348.25 155 1347.15 154.4 1346.35 153.2C1345.75 152 1345.75 150.9 1346.35 149.9L1359.25 119.9C1360.05 117.5 1360.25 115.8 1359.85 114.8C1359.65 113.6 1358.65 112.8 1356.85 112.4L1352.05 112.1C1349.85 111.9 1348.25 111.4 1347.25 110.6C1346.45 109.8 1346.05 108.5 1346.05 106.7V72.5C1346.05 69.1 1347.55 67.4 1350.55 67.4H1388.35C1391.15 67.4 1392.55 68.9 1392.55 71.9V104.3C1392.55 105.5 1392.15 106.7 1391.35 107.9L1364.35 150.2C1363.35 151.8 1361.95 153 1360.15 153.8C1358.35 154.6 1356.55 155 1354.75 155H1349.65ZM1504.56 172.4C1501.16 168 1496.56 164.2 1490.76 161C1484.96 157.8 1477.86 156.2 1469.46 156.2C1462.06 156.2 1455.76 157.7 1450.56 160.7C1445.56 163.5 1443.06 167.4 1443.06 172.4C1443.06 175 1444.06 177.5 1446.06 179.9C1448.06 182.1 1452.66 184.1 1459.86 185.9L1494.36 194.3C1510.96 198.1 1522.76 204.3 1529.76 212.9C1536.76 221.5 1540.26 231.1 1540.26 241.7C1540.26 252.5 1537.16 261.7 1530.96 269.3C1524.96 276.9 1516.56 282.8 1505.76 287C1494.96 291 1482.56 293 1468.56 293C1450.76 293 1435.66 289.9 1423.26 283.7C1410.86 277.3 1402.16 269.4 1397.16 260C1396.36 258.6 1395.96 257.3 1395.96 256.1C1395.96 254.7 1396.56 253.7 1397.76 253.1L1418.16 242.6C1420.16 241.6 1421.66 241.2 1422.66 241.4C1423.86 241.4 1424.86 241.9 1425.66 242.9C1428.26 246.5 1431.36 249.9 1434.96 253.1C1438.56 256.3 1443.06 258.9 1448.46 260.9C1453.86 262.7 1460.66 263.5 1468.86 263.3C1474.46 263.3 1479.46 262.7 1483.86 261.5C1488.46 260.1 1492.06 258.2 1494.66 255.8C1497.26 253.2 1498.56 250.2 1498.56 246.8C1498.56 243.4 1497.16 240.5 1494.36 238.1C1491.56 235.5 1486.36 233.3 1478.76 231.5L1447.86 224.9C1432.86 221.5 1421.46 216.2 1413.66 209C1406.06 201.6 1402.26 192 1402.26 180.2C1402.26 170 1404.86 161 1410.06 153.2C1415.46 145.4 1423.26 139.3 1433.46 134.9C1443.66 130.3 1455.86 128 1470.06 128C1485.26 128 1498.36 130.8 1509.36 136.4C1520.56 142 1528.56 148.7 1533.36 156.5C1534.16 157.7 1534.76 159 1535.16 160.4C1535.56 161.6 1534.86 162.7 1533.06 163.7L1511.46 174.2C1510.06 174.8 1508.76 175 1507.56 174.8C1506.56 174.4 1505.56 173.6 1504.56 172.4ZM1759.66 119.9C1755.26 115.1 1749.76 110.8 1743.16 107C1736.76 103.2 1727.56 101.3 1715.56 101.3C1702.96 101.3 1693.56 103.6 1687.36 108.2C1681.16 112.6 1678.06 118.3 1678.06 125.3C1678.06 127.7 1678.66 130.3 1679.86 133.1C1681.06 135.9 1683.46 138.6 1687.06 141.2C1690.66 143.8 1695.76 146.1 1702.36 148.1L1749.76 161.6C1768.16 166.6 1781.56 174.7 1789.96 185.9C1798.36 196.9 1802.56 209.7 1802.56 224.3C1802.56 238.3 1798.96 250.5 1791.76 260.9C1784.56 271.1 1774.26 279 1760.86 284.6C1747.46 290.2 1731.56 293 1713.16 293C1699.56 293 1686.76 291.5 1674.76 288.5C1662.96 285.3 1652.46 280.8 1643.26 275C1634.26 269 1627.16 262.1 1621.96 254.3C1620.96 252.3 1620.56 250.7 1620.76 249.5C1620.96 248.1 1621.96 246.7 1623.76 245.3L1646.86 229.4C1649.26 228 1651.16 227.4 1652.56 227.6C1654.16 227.8 1655.56 228.6 1656.76 230C1661.56 236 1666.26 241 1670.86 245C1675.66 249 1681.16 251.9 1687.36 253.7C1693.56 255.5 1700.96 256.4 1709.56 256.4C1722.56 256.4 1732.96 254.4 1740.76 250.4C1748.56 246.2 1752.46 239.8 1752.46 231.2C1752.46 227.8 1751.66 224.7 1750.06 221.9C1748.46 218.9 1745.86 216.3 1742.26 214.1C1738.86 211.7 1733.96 209.5 1727.56 207.5L1682.26 194.6C1670.46 191.2 1660.56 186.4 1652.56 180.2C1644.56 174 1638.46 166.7 1634.26 158.3C1630.26 149.9 1628.26 141.1 1628.26 131.9C1628.26 119.1 1631.76 107.6 1638.76 97.4C1645.96 87.2 1655.96 79.2 1668.76 73.4C1681.76 67.4 1696.86 64.4 1714.06 64.4C1725.46 64.4 1736.06 65.7 1745.86 68.3C1755.86 70.9 1764.86 74.5 1772.86 79.1C1780.86 83.7 1787.36 89.3 1792.36 95.9C1793.16 96.9 1793.76 98.1 1794.16 99.5C1794.56 100.7 1793.96 102 1792.36 103.4L1767.16 122C1765.96 122.8 1764.86 123.1 1763.86 122.9C1762.86 122.5 1761.46 121.5 1759.66 119.9ZM1870.29 131C1874.69 131 1876.89 133 1876.89 137V146C1876.89 147.2 1877.29 147.9 1878.09 148.1C1878.89 148.1 1879.89 147.6 1881.09 146.6C1884.29 143.6 1887.79 140.7 1891.59 137.9C1895.59 135.1 1900.29 132.8 1905.69 131C1911.09 129 1917.49 128 1924.89 128C1936.69 128 1947.19 131 1956.39 137C1965.59 142.8 1972.89 151.7 1978.29 163.7C1983.69 175.5 1986.39 190.7 1986.39 209.3C1986.39 228.5 1983.59 244.3 1977.99 256.7C1972.39 269.1 1964.79 278.3 1955.19 284.3C1945.59 290.1 1934.69 293 1922.49 293C1914.69 293 1907.49 291.8 1900.89 289.4C1894.29 287 1888.09 283.1 1882.29 277.7C1880.29 275.7 1878.79 274.8 1877.79 275C1876.99 275.2 1876.59 276.7 1876.59 279.5V334.4C1876.59 337.8 1875.09 339.5 1872.09 339.5H1835.19C1831.99 339.5 1830.39 337.7 1830.39 334.1V137.6C1830.39 135.4 1830.89 133.8 1831.89 132.8C1832.89 131.6 1834.69 131 1837.29 131H1870.29ZM1876.59 248.9C1880.59 253.3 1884.89 256.9 1889.49 259.7C1894.09 262.5 1899.39 263.9 1905.39 263.9C1912.39 263.9 1918.39 262.1 1923.39 258.5C1928.59 254.7 1932.59 248.8 1935.39 240.8C1938.19 232.6 1939.59 221.8 1939.59 208.4C1939.59 195.4 1938.19 185.2 1935.39 177.8C1932.59 170.4 1928.59 165.1 1923.39 161.9C1918.39 158.7 1912.69 157.1 1906.29 157.1C1900.69 157.1 1895.59 158.3 1890.99 160.7C1886.59 162.9 1883.09 165.9 1880.49 169.7C1877.89 173.3 1876.59 177.1 1876.59 181.1V248.9ZM2098.7 274.7C2092.5 280.3 2085.5 284.8 2077.7 288.2C2070.1 291.4 2061.3 293 2051.3 293C2036.1 293 2024.1 288.9 2015.3 280.7C2006.7 272.5 2002.4 262 2002.4 249.2C2002.4 238 2005.9 228.2 2012.9 219.8C2019.9 211.4 2029.9 204.9 2042.9 200.3C2055.9 195.5 2071.4 192.9 2089.4 192.5L2099.9 191.6C2101.1 191.6 2102.2 191.3 2103.2 190.7C2104.2 190.1 2104.7 189 2104.7 187.4V181.1C2104.7 173.5 2102.5 167.6 2098.1 163.4C2093.7 159 2087.4 156.8 2079.2 156.8C2073.2 156.8 2067.4 158.2 2061.8 161C2056.4 163.6 2051.8 168.2 2048 174.8C2047.4 176.2 2046.7 177.1 2045.9 177.5C2045.1 177.9 2043.6 177.9 2041.4 177.5L2011.4 170.6C2010.2 170.2 2009.3 169.6 2008.7 168.8C2008.3 167.8 2008.7 165.8 2009.9 162.8C2014.9 151 2023.5 142.3 2035.7 136.7C2048.1 130.9 2063.3 128 2081.3 128C2097.9 128 2111.1 130.1 2120.9 134.3C2130.7 138.5 2137.8 144.4 2142.2 152C2146.6 159.4 2148.8 168.1 2148.8 178.1V283.4C2148.8 285.8 2148.4 287.5 2147.6 288.5C2146.8 289.5 2145.3 290 2143.1 290H2112.2C2110 290 2108.4 289.2 2107.4 287.6C2106.6 286 2106.1 284 2105.9 281.6L2105.3 275C2104.9 271.4 2102.7 271.3 2098.7 274.7ZM2104.7 219.2C2104.7 215.8 2103.2 214.1 2100.2 214.1L2091.8 214.7C2086.6 214.9 2081.4 215.7 2076.2 217.1C2071 218.3 2066.3 220.1 2062.1 222.5C2057.9 224.7 2054.4 227.6 2051.6 231.2C2049 234.6 2047.7 238.6 2047.7 243.2C2047.7 249.2 2049.8 254 2054 257.6C2058.2 261 2064 262.7 2071.4 262.7C2076.4 262.7 2080.8 261.9 2084.6 260.3C2088.6 258.7 2092 256.8 2094.8 254.6C2097.8 252 2100.2 249.4 2102 246.8C2103.8 244.2 2104.7 241.5 2104.7 238.7V219.2Z" fill="white"/>
</svg>
